<svg xmlns="http://www.w3.org/2000/svg" viewBox="0 0 720 420" fill="none">
  <rect width="720" height="420" rx="28" fill="#F7F3EA"/>
  <path d="M78 92h258M78 134h380M78 176h310" stroke="#CFC5B5" stroke-width="18" stroke-linecap="round"/>
  <path d="M92 248c88-42 175-48 263-18 83 28 160 26 232-8" stroke="#2F7567" stroke-width="4" stroke-linecap="round"/>
  <path d="M105 290c82-26 162-24 241 6 94 36 174 28 240-25" stroke="#EA8E63" stroke-width="4" stroke-linecap="round"/>
  <rect x="480" y="68" width="132" height="132" rx="26" fill="#DCEBC8"/>
  <path d="M519 155c0-21 17-38 38-38h36v13h-36c-13.8 0-25 11.2-25 25s11.2 25 25 25h18v13h-18c-21 0-38-17-38-38Z" fill="#2F7567"/>
  <circle cx="584" cy="152" r="6" fill="#253226"/>
  <path d="M605 111h22l-22 18v-18Z" fill="#EA8E63"/>
  <path d="M80 348h166M284 348h116M438 348h202" stroke="#D8D0C3" stroke-width="14" stroke-linecap="round"/>
</svg>
