<svg xmlns="http://www.w3.org/2000/svg" viewBox="0 0 64 64" fill="none">
      <rect width="64" height="64" rx="18" fill="#F3F4F6"/>
      <path fill="#111827" d="M29 10a8 8 0 0 0-1.312 15.892V31h-6.14A5.55 5.55 0 0 0 16 36.548v4.14h-5.108A8 8 0 1 0 26.784 42H32v-6.14a5.55 5.55 0 0 1 5.548-5.548h4.14v-4.42A8 8 0 1 0 29 10m0 4a4 4 0 0 1 0 8h-5.312v9h8.28A4.03 4.03 0 0 1 36 35.032v8.28h-9v-5.108a4 4 0 1 0-4 4H20v4a4 4 0 1 1-8 0v-9.516h8v-4.14A9.55 9.55 0 0 1 29.548 23h8.14v-1.108a4 4 0 1 1 4 0V27h-4.14A9.55 9.55 0 0 0 28 36.548V39h-1.216A8 8 0 0 0 29 14"/>
    </svg>
