<svg xmlns="http://www.w3.org/2000/svg" viewBox="0 0 64 64" fill="none">
      <path fill="#3370FF" d="M14 24.56c0-6.47 5.244-11.714 11.714-11.714h17.425L29.487 26.5l-12.848 4.275A2.06 2.06 0 0 1 14 28.82z"/>
      <path fill="#00C2A8" d="M49.986 39.44c0 6.47-5.243 11.714-11.714 11.714H20.847L34.5 37.5l12.848-4.275a2.06 2.06 0 0 1 2.638 1.954z"/>
      <path fill="#89A7FF" d="m29.488 26.5 13.651-13.654h6.693a2.168 2.168 0 0 1 2.168 2.168v17.613z"/>
      <path fill="#76E6D5" d="M34.512 37.5 20.86 51.154h-6.693A2.168 2.168 0 0 1 12 48.986V31.373z"/>
    </svg>
